<?xml version="1.0" standalone="no"?>
<!DOCTYPE svg PUBLIC "-//W3C//DTD SVG 20010904//EN"
 "http://www.w3.org/TR/2001/REC-SVG-20010904/DTD/svg10.dtd">
<svg version="1.0" xmlns="http://www.w3.org/2000/svg"
 width="2216.000000pt" height="2216.000000pt" viewBox="0 0 2216.000000 2216.000000"
 preserveAspectRatio="xMidYMid meet">
<metadata>
Created by potrace 1.14, written by Peter Selinger 2001-2017
</metadata>
<g transform="translate(0.000000,2216.000000) scale(0.100000,-0.100000)"
fill="#000000" stroke="none">
<path d="M10747 22154 c-1 -1 -72 -4 -157 -8 -85 -4 -184 -9 -220 -11 -193
-13 -238 -17 -265 -20 -16 -3 -66 -7 -110 -10 -44 -3 -87 -7 -95 -10 -8 -2
-46 -6 -85 -9 -38 -4 -81 -8 -95 -10 -14 -3 -47 -7 -75 -11 -88 -11 -246 -33
-288 -40 -34 -6 -160 -27 -182 -30 -11 -2 -33 -6 -50 -9 -16 -3 -43 -8 -60
-11 -85 -15 -300 -59 -375 -77 -47 -11 -96 -22 -110 -24 -50 -10 -379 -94
-515 -132 -861 -243 -1708 -599 -2480 -1042 -16 -10 -57 -33 -90 -52 -202
-116 -528 -325 -765 -491 -116 -81 -358 -258 -395 -288 -11 -10 -78 -63 -150
-120 -132 -105 -282 -229 -390 -325 -33 -29 -70 -61 -83 -72 -101 -87 -242
-222 -447 -427 -211 -210 -299 -302 -420 -436 -60 -66 -231 -265 -275 -319
-25 -30 -47 -57 -50 -60 -17 -15 -151 -187 -321 -410 -221 -291 -538 -772
-723 -1099 -143 -251 -204 -365 -317 -591 -42 -85 -91 -185 -108 -222 -17 -38
-44 -96 -60 -130 -142 -310 -313 -746 -425 -1086 -32 -96 -59 -181 -61 -190
-3 -10 -23 -78 -45 -152 -70 -230 -198 -736 -225 -890 -3 -14 -11 -59 -20
-100 -25 -125 -53 -282 -60 -335 -4 -27 -8 -57 -10 -65 -3 -8 -7 -31 -10 -50
-3 -19 -10 -66 -15 -105 -13 -83 -15 -100 -25 -185 -4 -36 -9 -74 -11 -85 -2
-11 -7 -47 -10 -80 -3 -33 -7 -73 -8 -90 -2 -16 -7 -66 -11 -110 -4 -44 -9
-93 -11 -110 -1 -16 -6 -73 -9 -125 -4 -52 -8 -120 -10 -150 -27 -383 -22
-1122 10 -1494 3 -39 8 -100 11 -136 3 -36 7 -81 9 -100 2 -19 7 -64 10 -100
7 -66 9 -85 20 -175 8 -69 12 -97 25 -195 7 -47 13 -96 15 -110 2 -14 9 -56
15 -95 6 -38 13 -83 16 -100 2 -16 9 -52 14 -80 13 -66 19 -102 26 -145 3 -19
7 -43 10 -53 3 -10 7 -30 9 -45 5 -41 52 -249 96 -432 22 -91 42 -172 44 -180
6 -30 36 -146 45 -175 6 -16 34 -113 64 -215 92 -310 270 -821 349 -1002 8
-18 25 -58 37 -88 69 -169 294 -661 340 -742 5 -9 39 -74 76 -145 37 -70 95
-177 129 -238 34 -60 64 -117 68 -125 8 -17 229 -379 297 -485 70 -110 227
-341 299 -440 77 -107 226 -309 246 -333 7 -9 62 -78 122 -153 127 -160 177
-219 338 -404 226 -259 595 -635 861 -875 144 -130 219 -196 290 -255 27 -22
64 -54 84 -71 30 -26 215 -175 332 -266 19 -15 77 -58 129 -97 51 -38 99 -73
104 -78 6 -4 33 -24 60 -42 28 -19 52 -38 55 -41 12 -14 441 -297 596 -393
162 -99 369 -220 519 -302 104 -57 538 -275 630 -317 44 -20 105 -47 135 -61
30 -14 116 -51 190 -82 158 -66 164 -68 210 -88 19 -8 91 -36 160 -61 69 -26
134 -51 145 -56 40 -18 534 -184 581 -195 11 -2 73 -21 139 -40 119 -36 420
-116 525 -140 179 -41 349 -78 422 -91 156 -30 173 -33 212 -39 37 -6 50 -9
106 -19 14 -3 43 -8 65 -11 22 -3 51 -8 65 -10 64 -11 312 -44 370 -50 36 -3
76 -8 90 -10 33 -5 110 -13 190 -20 36 -3 85 -7 110 -10 384 -39 1266 -50
1595 -20 22 2 87 6 145 10 58 4 119 8 135 9 17 2 66 6 110 10 44 4 96 9 115
12 19 2 55 6 80 9 25 2 61 6 80 9 84 10 147 18 170 21 14 2 45 7 70 10 25 3
56 8 70 10 14 3 57 9 95 14 39 6 106 17 150 25 44 8 134 24 200 36 66 11 136
25 155 30 19 5 50 12 67 15 18 3 63 12 100 21 38 9 79 18 93 21 14 2 79 18
145 35 66 16 129 32 140 34 11 2 85 22 165 44 80 23 152 43 160 45 223 56 937
308 1175 415 22 10 68 29 102 44 468 197 1245 608 1555 823 26 18 50 33 52 33
4 0 166 105 181 118 6 5 24 17 40 28 46 29 297 205 326 228 15 12 39 30 55 41
190 135 599 470 849 696 148 133 551 529 655 644 25 28 73 79 105 115 33 36
89 98 125 139 36 41 70 79 75 85 24 25 213 255 245 296 19 25 37 47 40 50 3 3
28 34 55 70 27 36 52 67 55 70 12 11 233 314 328 450 118 170 305 461 393 610
99 169 159 273 159 276 0 2 15 29 34 61 77 134 227 428 331 648 62 132 258
585 270 625 4 14 14 41 22 60 8 19 19 44 24 55 99 233 361 1078 419 1355 4 19
24 107 44 194 30 132 91 442 110 561 2 17 8 50 11 75 4 25 9 54 11 65 4 21 13
80 20 135 2 19 9 64 14 100 10 70 19 138 25 210 3 25 7 61 10 80 2 19 7 64 10
100 3 36 8 83 10 105 2 22 7 85 10 140 4 55 8 118 10 140 25 255 25 1033 0
1400 -20 288 -35 449 -60 650 -2 17 -7 53 -10 80 -9 78 -24 185 -35 245 -5 30
-11 72 -14 93 -8 53 -17 106 -22 131 -2 11 -8 46 -14 76 -5 30 -11 66 -14 80
-6 34 -46 230 -52 255 -2 11 -7 34 -10 50 -20 114 -113 479 -188 740 -60 213
-183 581 -263 790 -26 66 -56 147 -69 180 -27 72 -187 448 -239 560 -37 81
-258 524 -285 573 -8 15 -32 59 -53 97 -20 39 -42 77 -47 85 -19 30 -100 172
-100 176 0 2 -57 97 -126 210 -130 212 -318 497 -439 664 -11 15 -29 40 -40
56 -63 91 -349 459 -454 584 -82 97 -226 265 -231 270 -3 3 -50 55 -105 115
-95 106 -558 572 -680 685 -33 31 -116 105 -185 164 -69 60 -141 123 -160 140
-19 18 -93 79 -165 136 -71 58 -132 107 -135 111 -3 3 -23 18 -45 34 -22 17
-42 32 -45 35 -3 3 -21 17 -40 30 -19 13 -37 27 -40 30 -32 37 -638 460 -660
460 -5 0 -10 4 -12 8 -2 7 -273 179 -348 222 -8 5 -61 36 -118 70 -56 33 -105
60 -108 60 -2 0 -21 10 -42 23 -85 53 -581 308 -712 366 -30 14 -93 42 -140
64 -47 21 -100 45 -117 53 -18 8 -48 20 -65 28 -100 43 -250 104 -378 152 -80
31 -154 59 -165 64 -11 5 -33 13 -50 18 -16 6 -75 26 -130 46 -221 81 -701
224 -905 271 -8 2 -40 11 -72 19 -31 8 -67 18 -80 20 -12 3 -43 10 -68 16
-110 27 -472 101 -564 116 -21 3 -48 7 -60 10 -36 7 -199 33 -241 39 -23 3
-50 7 -60 9 -11 2 -47 7 -80 11 -32 4 -66 8 -75 10 -8 1 -42 6 -75 9 -33 4
-71 9 -85 11 -14 2 -56 6 -95 10 -38 3 -86 8 -105 10 -19 2 -62 6 -95 9 -179
17 -186 17 -465 32 -112 6 -847 13 -853 8z"/>
</g>
</svg>
